<?xml version="1.0" encoding="utf-8"?>
<!-- Generator: Adobe Illustrator 16.0.0, SVG Export Plug-In . SVG Version: 6.00 Build 0)  -->
<!DOCTYPE svg PUBLIC "-//W3C//DTD SVG 1.1//EN" "http://www.w3.org/Graphics/SVG/1.1/DTD/svg11.dtd">
<svg version="1.1" id="Layer_1" xmlns="http://www.w3.org/2000/svg" xmlns:xlink="http://www.w3.org/1999/xlink" x="0px" y="0px"
	 width="100.11px" height="5400.344px" viewBox="0 0 100.11 5400.344" enable-background="new 0 0 100.11 5400.344"
	 xml:space="preserve">
<rect x="12.431" y="4540.169" fill="#CECECE" width="75" height="21"/>
<polygon id="check-mark-icon_1_" fill="#2ABF69" points="76.245,4119.999 39.722,4156.528 23.895,4140.704 12.169,4152.44 
	39.722,4179.999 87.989,4131.733 "/>
<g id="Layer_8">
	<g>
		<path fill="#808080" d="M50,3220c-16.542,0-30,13.459-30,30.001c0,16.541,13.458,29.998,30,29.998s30-13.457,30-29.998
			C80,3233.459,66.542,3220,50,3220z M50,3275.112c-13.848,0-25.11-11.268-25.11-25.111c0-13.846,11.263-25.111,25.11-25.111
			s25.113,11.266,25.113,25.111C75.113,3263.845,63.848,3275.112,50,3275.112z M65.498,3242.284c0.5,0.727,0.318,1.722-0.41,2.225
			l-14.48,10.003c-0.27,0.186-0.589,0.283-0.906,0.283c-0.256,0-0.51-0.062-0.744-0.183c-0.525-0.277-0.854-0.824-0.854-1.414
			v-21.414c0-0.882,0.715-1.598,1.598-1.598c0.882,0,1.597,0.716,1.597,1.598v18.365l11.976-8.272
			C64,3241.378,64.998,3241.56,65.498,3242.284z"/>
	</g>
</g>
<polygon fill="#F49C14" points="20.043,3019.999 20.043,3062.855 30.219,3062.855 30.756,3062.855 30.756,3079.999 52.191,3062.855 
	80.043,3062.855 80.043,3019.999 "/>
<g>
	<rect x="7.431" y="20.169" fill="#777777" width="37" height="36"/>
	<rect x="55.431" y="20.169" fill="#777777" width="37" height="12"/>
	<rect x="55.431" y="44.169" fill="#777777" width="37" height="12"/>
	<rect x="7.431" y="68.169" fill="#777777" width="85" height="12"/>
</g>
<polygon fill="#777777" points="68.678,1650.022 68.655,1650 68.678,1649.978 61.345,1642.645 61.322,1642.667 38.655,1620 
	31.322,1627.333 53.989,1650 31.322,1672.667 38.654,1680 61.322,1657.333 61.346,1657.356 "/>
<polygon fill="#777777" points="31.322,1249.977 31.344,1250 31.322,1250.023 38.654,1257.355 38.678,1257.334 61.344,1280 
	68.678,1272.668 46.01,1250 68.678,1227.332 61.346,1220 38.678,1242.668 38.654,1242.645 "/>
<polygon fill="#777777" points="79.997,2024.882 75.114,2020 50,2045.117 24.885,2020 20.002,2024.882 45.117,2050 20.002,2075.117 
	24.885,2080 50,2054.883 75.114,2080 79.997,2075.117 54.882,2050 "/>
<path fill="#F1F1F1" d="M65.074,2642.044c0-12.429-10.119-22.533-22.533-22.533c-12.428,0-22.541,10.104-22.541,22.533
	c0,12.422,10.113,22.534,22.533,22.534C54.955,2664.578,65.074,2654.466,65.074,2642.044z M42.541,2658.919
	c-9.311,0-16.875-7.567-16.875-16.875c0-9.307,7.564-16.875,16.875-16.875c9.303,0,16.875,7.568,16.875,16.875
	C59.416,2651.352,51.844,2658.919,42.541,2658.919z M57.713,2663.181l4.98-4.983L80,2675.508l-4.973,4.98L57.713,2663.181z"/>
<g>
	<g>
		<rect x="55.431" y="420.169" fill="#777777" width="37" height="36"/>
		<rect x="7.431" y="420.169" fill="#777777" width="37" height="12"/>
		<rect x="7.431" y="444.169" fill="#777777" width="37" height="12"/>
		<rect x="7.431" y="468.169" fill="#777777" width="85" height="12"/>
	</g>
</g>
<polyline fill="none" stroke="#FFFFFF" stroke-width="4.6145" stroke-miterlimit="10" points="55.501,3520 44.498,3550.159 
	55.501,3580 "/>
<polyline fill="none" stroke="#FFFFFF" stroke-width="4.6145" stroke-miterlimit="10" points="44.498,3820 55.502,3850.159 
	44.498,3880 "/>
<g>
	<rect x="7.431" y="220.169" fill="#27CFAE" width="37" height="36"/>
	<rect x="55.431" y="220.169" fill="#27CFAE" width="37" height="12"/>
	<rect x="55.431" y="244.169" fill="#27CFAE" width="37" height="12"/>
	<rect x="7.431" y="268.169" fill="#27CFAE" width="85" height="12"/>
</g>
<g>
	<rect x="55.431" y="620.169" fill="#27CFAE" width="37" height="36"/>
	<rect x="7.431" y="620.169" fill="#27CFAE" width="37" height="12"/>
	<rect x="7.431" y="644.169" fill="#27CFAE" width="37" height="12"/>
	<rect x="7.431" y="668.169" fill="#27CFAE" width="85" height="12"/>
</g>
<g>
	<rect x="7.431" y="820.169" fill="#777777" width="85" height="36"/>
	<rect x="7.431" y="868.169" fill="#777777" width="85" height="12"/>
</g>
<g>
	<rect x="7.431" y="1020.169" fill="#27CFAE" width="85" height="36"/>
	<rect x="7.431" y="1068.169" fill="#27CFAE" width="85" height="12"/>
</g>
<polygon fill="#27CFAE" points="31.322,1449.977 31.344,1450 31.322,1450.023 38.654,1457.355 38.678,1457.334 61.344,1480 
	68.678,1472.668 46.01,1450 68.678,1427.332 61.346,1420 38.678,1442.668 38.654,1442.645 "/>
<polygon fill="#27CFAE" points="68.678,1850.022 68.655,1850 68.678,1849.978 61.345,1842.645 61.322,1842.667 38.655,1820 
	31.322,1827.333 53.989,1850 31.322,1872.667 38.654,1880 61.322,1857.333 61.346,1857.356 "/>
<polygon fill="#27CFAE" points="79.997,2224.882 75.114,2220 50,2245.117 24.885,2220 20.002,2224.882 45.117,2250 20.002,2275.117 
	24.885,2280 50,2254.883 75.114,2280 79.997,2275.117 54.882,2250 "/>
<polygon fill="#C3C3C3" points="20.043,2819.999 20.043,2862.855 30.219,2862.855 30.756,2862.855 30.756,2879.999 52.191,2862.855 
	80.043,2862.855 80.043,2819.999 "/>
<polygon fill="#FFFFFF" points="79.997,2424.882 75.114,2420 50,2445.117 24.885,2420 20.002,2424.882 45.117,2450 20.002,2475.117 
	24.885,2480 50,2454.883 75.114,2480 79.997,2475.117 54.882,2450 "/>
<polygon id="check-mark-icon_4_" fill="#FFFFFF" points="76.176,4320 39.652,4356.529 23.825,4340.705 12.1,4352.441 39.652,4380 
	87.92,4331.734 "/>
<rect x="12.431" y="4740.169" fill="#FFFFFF" width="75" height="21"/>
<polygon fill="#FFFFFF" points="87.569,4939.5 60.569,4939.5 60.569,4912.5 39.569,4912.5 39.569,4939.5 12.569,4939.5 
	12.569,4960.5 39.569,4960.5 39.569,4987.5 60.569,4987.5 60.569,4960.5 87.569,4960.5 "/>
<polygon fill="#FFFFFF" points="33.179,5124.709 75.671,5149.244 33.179,5173.777 "/>
<polygon fill="#FFFFFF" points="3.67,5373.67 28.292,5345.076 42.986,5359.373 66.019,5328 95.804,5373.67 "/>
</svg>
