<?xml version="1.0" encoding="utf-8"?>
<!-- Generator: Adobe Illustrator 16.0.0, SVG Export Plug-In . SVG Version: 6.00 Build 0)  -->
<!DOCTYPE svg PUBLIC "-//W3C//DTD SVG 1.1//EN" "http://www.w3.org/Graphics/SVG/1.1/DTD/svg11.dtd">
<svg version="1.1" id="Layer_1" xmlns="http://www.w3.org/2000/svg" xmlns:xlink="http://www.w3.org/1999/xlink" x="0px" y="0px"
	 width="616.188px" height="440.846px" viewBox="0 0 616.188 440.846" enable-background="new 0 0 616.188 440.846"
	 xml:space="preserve">
<g>
	<g>
		<path fill="#B5B6B6" d="M42.204,5.059h32.79v31.68c0,0,1.258,30.607-32.54,39.045V62.112c0,0,16.9-4.048,19.321-24.364H42.204
			V5.059z"/>
		<path fill="#B5B6B6" d="M0,5.059h32.79v31.68c0,0,1.262,30.607-32.538,39.045V62.112c0,0,16.899-4.048,19.321-24.364H0V5.059z"/>
	</g>
	<polygon id="star-2-icon_5_" fill="#B5B6B6" points="217.502,0 230.496,26.804 260.002,30.879 238.527,51.518 243.768,80.841 
		217.502,66.793 191.235,80.841 196.479,51.518 175.002,30.879 204.508,26.804 	"/>
	<polygon id="plus-2-icon_5_" fill="#B5B6B6" points="435.001,64.118 411.307,40.422 435.001,16.724 421.197,2.921 397.502,26.618 
		373.805,2.921 360.004,16.724 383.698,40.422 360.004,64.118 373.805,77.921 397.502,54.225 421.197,77.921 	"/>
	<polygon id="check-mark-icon_2_" fill="#B5B6B6" points="604.207,9.81 566.935,47.083 550.79,30.935 538.817,42.91 566.935,71.035 
		616.187,21.78 	"/>
	<g>
		<path fill="#23B99E" d="M42.205,185.062h32.79v31.68c0,0,1.258,30.607-32.54,39.045v-13.671c0,0,16.9-4.048,19.321-24.364H42.205
			V185.062z"/>
		<path fill="#23B99E" d="M0.001,185.062h32.79v31.68c0,0,1.262,30.607-32.538,39.045v-13.671c0,0,16.899-4.048,19.321-24.364H0.001
			V185.062z"/>
	</g>
	<polygon id="star-2-icon_2_" fill="#23B99E" points="217.503,180.003 230.497,206.807 260.003,210.882 238.528,231.521 
		243.769,260.844 217.503,246.796 191.236,260.844 196.479,231.521 175.003,210.882 204.509,206.807 	"/>
	<polygon id="plus-2-icon_2_" fill="#23B99E" points="435.002,244.121 411.308,220.425 435.002,196.727 421.198,182.924 
		397.503,206.621 373.806,182.924 360.005,196.727 383.699,220.425 360.005,244.121 373.806,257.924 397.503,234.228 
		421.198,257.924 	"/>
	<polygon id="check-mark-icon_3_" fill="#23B99E" points="604.208,189.813 566.936,227.085 550.791,210.938 538.818,222.913 
		566.936,251.038 616.188,201.783 	"/>
	<g>
		<path fill="#FFFFFF" d="M42.205,365.063h32.79v31.68c0,0,1.258,30.607-32.54,39.045v-13.671c0,0,16.9-4.048,19.321-24.364H42.205
			V365.063z"/>
		<path fill="#FFFFFF" d="M0.001,365.063h32.79v31.68c0,0,1.262,30.607-32.538,39.045v-13.671c0,0,16.899-4.048,19.321-24.364H0.001
			V365.063z"/>
	</g>
	<polygon id="star-2-icon_7_" fill="#FFFFFF" points="217.503,360.004 230.497,386.809 260.003,390.883 238.528,411.522 
		243.769,440.846 217.503,426.797 191.236,440.846 196.479,411.522 175.003,390.883 204.509,386.809 	"/>
	<polygon id="plus-2-icon_7_" fill="#FFFFFF" points="435.002,424.124 411.308,400.426 435.002,376.729 421.198,362.926 
		397.503,386.623 373.806,362.926 360.005,376.729 383.699,400.426 360.005,424.124 373.806,437.926 397.503,414.23 
		421.198,437.926 	"/>
	<polygon id="check-mark-icon_5_" fill="#FFFFFF" points="604.208,369.815 566.936,407.087 550.791,390.94 538.818,402.915 
		566.936,431.04 616.188,381.785 	"/>
</g>
</svg>
