<?xml version="1.0" encoding="utf-8"?>
<!-- Generator: Adobe Illustrator 16.0.0, SVG Export Plug-In . SVG Version: 6.00 Build 0)  -->
<!DOCTYPE svg PUBLIC "-//W3C//DTD SVG 1.1//EN" "http://www.w3.org/Graphics/SVG/1.1/DTD/svg11.dtd">
<svg version="1.1" id="Layer_1" xmlns="http://www.w3.org/2000/svg" xmlns:xlink="http://www.w3.org/1999/xlink" x="0px" y="0px"
	 width="17.031px" height="14.131px" viewBox="0 0 17.031 14.131" enable-background="new 0 0 17.031 14.131" xml:space="preserve">
<g>
	<path fill="#24B99E" d="M1.537,5.95L0,5.37l1.66,3.68l0.065-0.03l1.866-0.841L4.42,7.806l0.92-0.415L3.481,6.686
		c0.138-1.78,1.216-3.435,2.961-4.221c2.224-1.003,4.795-0.259,6.167,1.649l1.868-0.843c-1.856-2.92-5.622-4.108-8.865-2.646
		C3.364,1.639,1.9,3.686,1.537,5.95z"/>
	<path fill="#24B99E" d="M4.42,10.019l-1.864,0.84c1.854,2.92,5.62,4.109,8.865,2.646c2.248-1.014,3.71-3.06,4.073-5.324
		l1.537,0.581l-0.415-0.92l-0.83-1.84l-0.415-0.92l-0.065,0.03l-1.868,0.842L11.69,6.741l1.859,0.705
		c-0.138,1.78-1.216,3.435-2.961,4.221C8.364,12.67,5.794,11.925,4.42,10.019z"/>
</g>
</svg>
