<?xml version="1.0" encoding="utf-8"?>
<!-- Generator: Adobe Illustrator 16.0.0, SVG Export Plug-In . SVG Version: 6.00 Build 0)  -->
<!DOCTYPE svg PUBLIC "-//W3C//DTD SVG 1.1//EN" "http://www.w3.org/Graphics/SVG/1.1/DTD/svg11.dtd">
<svg version="1.1" id="Layer_1" xmlns="http://www.w3.org/2000/svg" xmlns:xlink="http://www.w3.org/1999/xlink" x="0px" y="0px"
	 width="150.5px" height="450px" viewBox="0 0 150.5 450" enable-background="new 0 0 150.5 450" xml:space="preserve">
<path id="facebook-icon" fill="#FFFFFF" d="M63.107,58.669h-9.882v16.128h9.882v47.38h18.999V74.596h13.256l1.411-15.927H82.106
	c0,0,0-5.947,0-9.073c0-3.754,0.757-5.241,4.385-5.241c2.924,0,10.282,0,10.282,0V27.822c0,0-10.839,0-13.155,0
	c-14.138,0-20.511,6.224-20.511,18.144C63.107,56.35,63.107,58.669,63.107,58.669z"/>
<path id="twitter-icon" fill="#FFFFFF" d="M121.053,363.62c-3.416,1.69-7.114,2.896-11.022,3.534
	c3.905-2.575,6.821-6.514,8.078-11.108c-3.658,2.386-7.744,4.178-12.132,5.24c-3.7-3.623-8.848-5.765-14.432-5.522
	c-12.533,0.534-21.246,12.628-17.893,24.653c-16.172-0.121-30.813-7.237-40.892-18.574c-4.711,8.941-1.772,20.258,7.119,25.662
	c-3.184,0.039-6.217-0.705-8.896-2.049c0.176,9.004,6.981,17.143,16.399,18.614c-2.701,0.864-5.688,1.163-8.756,0.709
	c2.803,7.608,10.213,12.915,18.715,12.706c-7.887,6.746-18.045,10.045-28.397,9.273c8.828,5.14,19.172,7.918,30.137,7.447
	c36.047-1.545,55.109-32.863,52.713-60.123C115.471,371.185,118.613,367.622,121.053,363.62z"/>
</svg>
