<?xml version="1.0" encoding="utf-8"?>
<!-- Generator: Adobe Illustrator 16.0.0, SVG Export Plug-In . SVG Version: 6.00 Build 0)  -->
<!DOCTYPE svg PUBLIC "-//W3C//DTD SVG 1.1//EN" "http://www.w3.org/Graphics/SVG/1.1/DTD/svg11.dtd">
<svg version="1.1" id="Layer_1" xmlns="http://www.w3.org/2000/svg" xmlns:xlink="http://www.w3.org/1999/xlink" x="0px" y="0px"
	 width="94.414px" height="946.427px" viewBox="0 0 94.414 946.427" enable-background="new 0 0 94.414 946.427"
	 xml:space="preserve">
<g>
	<g>
		<path id="facebook-icon" fill="#FFFFFF" d="M35.314,30.847h-9.883v16.128h9.883v47.38h18.998V46.774h13.256l1.412-15.927H54.312
			c0,0,0-5.947,0-9.073c0-3.754,0.758-5.241,4.387-5.241c2.924,0,10.281,0,10.281,0V0c0,0-10.84,0-13.154,0
			C41.688,0,35.314,6.224,35.314,18.144C35.314,28.528,35.314,30.847,35.314,30.847z"/>
		<path id="twitter-icon" fill="#FFFFFF" d="M93.261,335.798c-3.416,1.688-7.113,2.896-11.021,3.534
			c3.904-2.575,6.82-6.516,8.078-11.108c-3.658,2.386-7.744,4.178-12.133,5.24c-3.699-3.623-8.848-5.767-14.432-5.522
			c-12.533,0.534-21.247,12.628-17.894,24.653c-16.172-0.121-30.813-7.237-40.891-18.574c-4.712,8.941-1.772,20.258,7.118,25.662
			c-3.184,0.039-6.217-0.705-8.896-2.049c0.176,9.004,6.98,17.143,16.398,18.614c-2.7,0.862-5.688,1.163-8.756,0.709
			c2.804,7.606,10.213,12.915,18.715,12.706c-7.887,6.746-18.045,10.045-28.396,9.271c8.828,5.142,19.172,7.918,30.137,7.447
			c36.046-1.545,55.107-32.863,52.712-60.123C87.679,343.362,90.822,339.8,93.261,335.798z"/>
		<g id="google-plus-icon">
			<path fill="#FFFFFF" d="M94.412,620.904H81.894v12.52H75.64v-12.52h-12.52v-6.259h12.52v-12.519h6.256v12.519h12.518v6.259
				H94.412z M59.027,672.675c0,9.382-8.568,20.805-30.121,20.805C13.144,693.479,0,686.682,0,675.245
				c0-8.823,5.586-20.282,31.698-20.282c-3.88-3.161-4.83-7.581-2.462-12.365c-15.288,0-23.116-8.987-23.116-20.4
				c0-11.166,8.306-21.318,25.241-21.318c4.277,0,27.132,0,27.132,0l-6.063,6.363h-7.121c5.023,2.879,7.697,8.809,7.697,15.343
				c0,5.998-3.301,10.855-8.019,14.503c-8.365,6.465-6.221,10.077,2.542,16.468C56.167,660.026,59.027,665.024,59.027,672.675z
				 M42.105,622.99c-1.264-9.604-7.519-17.48-14.83-17.702c-7.311-0.216-12.214,7.133-10.953,16.738
				c1.263,9.603,8.21,16.31,15.523,16.53C39.158,638.775,43.366,632.595,42.105,622.99z M49.642,673.639
				c0-7.901-7.207-15.428-19.294-15.428c-10.894-0.12-20.124,6.886-20.124,15.004c0,8.285,7.865,15.181,18.761,15.181
				C42.912,688.396,49.642,681.923,49.642,673.639z"/>
		</g>
	</g>
	<path id="linkedin-icon" fill="#FFFFFF" d="M27.122,877.541c0,5.337-4.29,9.662-9.585,9.662s-9.586-4.325-9.586-9.662
		c0-5.336,4.291-9.663,9.586-9.663S27.122,872.205,27.122,877.541z M25.719,894.062H9.512v52.365h16.207V894.062z M51.628,894.062
		H36.082v52.365h15.546c0,0,0-19.424,0-27.488c0-7.364,3.391-11.747,9.879-11.747c5.959,0,8.824,4.208,8.824,11.747
		s0,27.488,0,27.488h16.131c0,0,0-19.131,0-33.156c0-14.028-7.949-20.807-19.055-20.807c-11.104,0-15.779,8.648-15.779,8.648
		V894.062L51.628,894.062z"/>
</g>
</svg>
