<?xml version="1.0" encoding="utf-8"?>
<!-- Generator: Adobe Illustrator 16.0.0, SVG Export Plug-In . SVG Version: 6.00 Build 0)  -->
<!DOCTYPE svg PUBLIC "-//W3C//DTD SVG 1.1//EN" "http://www.w3.org/Graphics/SVG/1.1/DTD/svg11.dtd">
<svg version="1.1" id="Layer_1" xmlns="http://www.w3.org/2000/svg" xmlns:xlink="http://www.w3.org/1999/xlink" x="0px" y="0px"
	 width="1050px" height="450.001px" viewBox="0 0 1050 450.001" enable-background="new 0 0 1050 450.001" xml:space="preserve">
<path id="facebook-icon" fill="#C4C4C4" d="M63.107,58.669h-9.882v16.128h9.882v47.38h18.999V74.596h13.256l1.411-15.927H82.106
	c0,0,0-5.947,0-9.073c0-3.754,0.757-5.241,4.385-5.241c2.924,0,10.282,0,10.282,0V27.822c0,0-10.839,0-13.155,0
	c-14.138,0-20.511,6.224-20.511,18.144C63.107,56.35,63.107,58.669,63.107,58.669z"/>
<path id="twitter-icon" fill="#C4C4C4" d="M421.055,43.619c-3.416,1.691-7.115,2.897-11.023,3.535
	c3.906-2.576,6.822-6.514,8.078-11.108c-3.658,2.385-7.744,4.177-12.131,5.239c-3.701-3.623-8.848-5.764-14.432-5.522
	c-12.533,0.534-21.246,12.628-17.893,24.653c-16.172-0.12-30.813-7.237-40.891-18.573c-4.711,8.941-1.773,20.257,7.119,25.662
	c-3.184,0.038-6.217-0.705-8.896-2.049c0.176,9.004,6.982,17.142,16.4,18.614c-2.701,0.864-5.688,1.163-8.756,0.709
	c2.803,7.608,10.213,12.915,18.715,12.706c-7.887,6.746-18.045,10.045-28.398,9.274c8.828,5.139,19.172,7.917,30.137,7.447
	c36.047-1.545,55.109-32.864,52.713-60.124C415.473,51.185,418.615,47.621,421.055,43.619z"/>
<path id="vimeo-icon" fill="#C4C4C4" d="M1020.027,54.047c-0.404,8.778-6.531,20.796-18.385,36.052
	c-12.256,15.934-22.625,23.902-31.107,23.902c-5.252,0-9.699-4.851-13.331-14.557c-2.426-8.896-4.851-17.792-7.275-26.688
	c-2.697-9.701-5.589-14.557-8.684-14.557c-0.674,0-3.034,1.42-7.074,4.247l-4.241-5.465c4.448-3.91,8.838-7.82,13.155-11.735
	c5.933-5.128,10.387-7.826,13.356-8.099c7.014-0.674,11.333,4.124,12.953,14.392c1.751,11.078,2.963,17.969,3.644,20.666
	c2.022,9.192,4.247,13.783,6.677,13.783c1.887,0,4.721-2.981,8.501-8.943c3.772-5.963,5.797-10.499,6.068-13.617
	c0.539-5.146-1.485-7.726-6.068-7.726c-2.159,0-4.384,0.497-6.673,1.479c4.431-14.515,12.895-21.565,25.388-21.164
	C1016.192,36.29,1020.559,42.299,1020.027,54.047z"/>
<path id="youtube-new-icon" fill="#C4C4C4" d="M727.505,55.333c-1.68-14.281-7.341-16.249-18.605-17.015
	c-16.016-1.089-51.771-1.09-67.799,0c-11.264,0.767-16.925,2.735-18.604,17.015c-1.248,10.602-1.253,28.696,0,39.334
	c1.681,14.281,7.34,16.249,18.604,17.016c16.028,1.091,51.783,1.089,67.799,0c11.265-0.767,16.926-2.734,18.605-17.016
	C728.752,84.066,728.757,65.971,727.505,55.333z M664.356,89.924V60.11l28.591,14.906L664.356,89.924z"/>
<path id="facebook-icon_2_" fill="#3B5998" d="M63.107,358.669h-9.882v16.129h9.882v47.38h18.999v-47.581h13.256l1.411-15.928
	H82.106c0,0,0-5.947,0-9.072c0-3.755,0.757-5.242,4.385-5.242c2.924,0,10.282,0,10.282,0v-16.532c0,0-10.839,0-13.155,0
	c-14.138,0-20.511,6.224-20.511,18.144C63.107,356.35,63.107,358.669,63.107,358.669z"/>
<path id="twitter-icon_2_" fill="#00ACED" d="M421.055,343.619c-3.416,1.691-7.115,2.898-11.023,3.535
	c3.906-2.576,6.822-6.514,8.078-11.107c-3.658,2.385-7.744,4.177-12.131,5.238c-3.701-3.623-8.848-5.764-14.432-5.521
	c-12.533,0.533-21.246,12.627-17.893,24.652c-16.172-0.119-30.813-7.237-40.891-18.573c-4.711,8.94-1.773,20.257,7.119,25.662
	c-3.184,0.038-6.217-0.704-8.896-2.05c0.176,9.005,6.982,17.143,16.4,18.614c-2.701,0.864-5.688,1.163-8.756,0.71
	c2.803,7.607,10.213,12.914,18.715,12.705c-7.887,6.746-18.045,10.046-28.398,9.275c8.828,5.139,19.172,7.916,30.137,7.447
	c36.047-1.546,55.109-32.865,52.713-60.125C415.473,351.185,418.615,347.622,421.055,343.619z"/>
<path id="vimeo-icon_2_" fill="#0492BC" d="M1020.027,354.047c-0.404,8.778-6.531,20.796-18.385,36.052
	c-12.256,15.934-22.625,23.902-31.107,23.902c-5.252,0-9.699-4.851-13.331-14.557c-2.426-8.896-4.851-17.793-7.275-26.688
	c-2.697-9.701-5.589-14.558-8.684-14.558c-0.674,0-3.034,1.42-7.074,4.248l-4.241-5.466c4.448-3.909,8.838-7.819,13.155-11.735
	c5.933-5.128,10.387-7.825,13.356-8.098c7.014-0.674,11.333,4.123,12.953,14.392c1.751,11.078,2.963,17.969,3.644,20.666
	c2.022,9.192,4.247,13.782,6.677,13.782c1.887,0,4.721-2.98,8.501-8.943c3.772-5.963,5.797-10.498,6.068-13.616
	c0.539-5.146-1.485-7.726-6.068-7.726c-2.159,0-4.384,0.497-6.673,1.479c4.431-14.515,12.895-21.564,25.388-21.164
	C1016.192,336.291,1020.559,342.3,1020.027,354.047z"/>
<path id="youtube-new-icon_2_" fill="#BB0000" d="M727.505,355.333c-1.68-14.281-7.341-16.248-18.605-17.016
	c-16.016-1.089-51.771-1.09-67.799,0c-11.264,0.768-16.925,2.735-18.604,17.016c-1.248,10.602-1.253,28.696,0,39.334
	c1.681,14.281,7.34,16.249,18.604,17.016c16.028,1.092,51.783,1.09,67.799,0c11.265-0.767,16.926-2.734,18.605-17.016
	C728.752,384.066,728.757,365.972,727.505,355.333z M664.356,389.924v-29.813l28.591,14.906L664.356,389.924z"/>
</svg>
