<?xml version="1.0" encoding="utf-8"?>
<!-- Generator: Adobe Illustrator 16.0.0, SVG Export Plug-In . SVG Version: 6.00 Build 0)  -->
<!DOCTYPE svg PUBLIC "-//W3C//DTD SVG 1.1//EN" "http://www.w3.org/Graphics/SVG/1.1/DTD/svg11.dtd">
<svg version="1.1" id="Layer_1" xmlns="http://www.w3.org/2000/svg" xmlns:xlink="http://www.w3.org/1999/xlink" x="0px" y="0px"
	 width="240px" height="407px" viewBox="0 0 240 407" enable-background="new 0 0 240 407" xml:space="preserve">
<g>
	<g>
		<rect fill="#23B99E" width="29" height="29"/>
		<rect x="38" fill="#23B99E" width="29" height="29"/>
		<rect y="38" fill="#23B99E" width="29" height="29"/>
		<rect x="38" y="38" fill="#23B99E" width="29" height="29"/>
	</g>
	<g>
		<rect x="168" fill="#23B99E" width="72" height="16"/>
		<rect x="168" y="26" fill="#23B99E" width="72" height="15"/>
		<rect x="168" y="51" fill="#23B99E" width="72" height="16"/>
	</g>
	<g>
		<rect y="170" fill="#FFFFFF" width="29" height="29"/>
		<rect x="38" y="170" fill="#FFFFFF" width="29" height="29"/>
		<rect y="208" fill="#FFFFFF" width="29" height="29"/>
		<rect x="38" y="208" fill="#FFFFFF" width="29" height="29"/>
	</g>
	<g>
		<rect x="168" y="170" fill="#FFFFFF" width="72" height="16"/>
		<rect x="168" y="196" fill="#FFFFFF" width="72" height="15"/>
		<rect x="168" y="221" fill="#FFFFFF" width="72" height="16"/>
	</g>
	<g>
		<rect y="340" fill="#B5B6B6" width="29" height="29"/>
		<rect x="38" y="340" fill="#B5B6B6" width="29" height="29"/>
		<rect y="378" fill="#B5B6B6" width="29" height="29"/>
		<rect x="38" y="378" fill="#B5B6B6" width="29" height="29"/>
	</g>
	<g>
		<rect x="168" y="340" fill="#B5B6B6" width="72" height="16"/>
		<rect x="168" y="366" fill="#B5B6B6" width="72" height="15"/>
		<rect x="168" y="391" fill="#B5B6B6" width="72" height="16"/>
	</g>
</g>
</svg>
