<?xml version="1.0" encoding="utf-8"?>
<!-- Generator: Adobe Illustrator 16.0.0, SVG Export Plug-In . SVG Version: 6.00 Build 0)  -->
<!DOCTYPE svg PUBLIC "-//W3C//DTD SVG 1.1//EN" "http://www.w3.org/Graphics/SVG/1.1/DTD/svg11.dtd">
<svg version="1.1" id="Layer_1" xmlns="http://www.w3.org/2000/svg" xmlns:xlink="http://www.w3.org/1999/xlink" x="0px" y="0px"
	 width="60.074px" height="1354.854px" viewBox="-0.5 0 60.074 1354.854" enable-background="new -0.5 0 60.074 1354.854"
	 xml:space="preserve">
<g>
	<g>
		<g>
			<rect x="35.576" y="20.639" fill="#2BA886" width="6.205" height="18.295"/>
			<rect x="26.812" y="26.078" fill="#2BA886" width="6.204" height="12.856"/>
			<rect x="18.046" y="31.517" fill="#2BA886" width="6.205" height="7.417"/>
		</g>
		<path fill="#2BA886" d="M-0.5,488.746v51h60v-51H-0.5L-0.5,488.746z M19.5,498.746h20v7h-20V498.746z M39.5,529.746h-20v-7h20
			V529.746z M49.5,517.746h-40v-7h40V517.746z"/>
		<path fill="#2BA886" d="M-0.5,368.746v51h60v-51H-0.5z M9.5,378.746h27v7h-27V378.746z M36.5,409.746h-27v-7h27V409.746z
			 M46.5,397.746h-37v-7h37V397.746z"/>
		<path fill="#2BA886" d="M-0.5,247.746v51h60v-51H-0.5z M9.5,263.746h26v7h-26V263.746z M45.5,282.746h-36v-7h36V282.746z"/>
		<polygon fill="#2BA886" points="27.68,249.746 38.675,239.746 49.673,249.746 		"/>
		<path fill="#2BA886" d="M-0.5,608.746v51h60v-51H-0.5z M49.5,649.746h-27v-7h27V649.746z M49.5,637.746h-37v-7h37V637.746z
			 M49.5,625.746h-27v-7h27V625.746z"/>
		<g>
			<path id="link-icon_4_" fill="#2BA886" d="M41.742,875.447c-0.979,0.988-2.07,1.81-3.229,2.456
				c-6.465,3.592-14.779,1.727-18.97-4.57l5.021-5.059c1.457,3.288,5.049,5.148,8.617,4.34c1.344-0.308,2.618-0.983,3.657-2.031
				l9.621-9.695c2.92-2.94,2.904-7.713-0.041-10.635c-2.94-2.92-7.713-2.902-10.635,0.041l-2.967,2.988
				c-2.711-1.063-5.617-1.48-8.482-1.256l6.547-6.598c5.611-5.654,14.748-5.688,20.402-0.075c5.658,5.61,5.693,14.744,0.08,20.401
				L41.742,875.447z M26.466,890.849l6.548-6.598c-2.867,0.225-5.775-0.195-8.486-1.259l-2.967,2.989
				c-2.922,2.942-7.689,2.963-10.638,0.04c-2.938-2.92-2.961-7.69-0.036-10.637l9.62-9.693c2.931-2.954,7.707-2.946,10.636-0.04
				c0.683,0.677,1.271,1.52,1.64,2.351l5.021-5.058c-0.533-0.802-1.085-1.49-1.798-2.195c-1.83-1.818-4.153-3.167-6.823-3.797
				c-3.466-0.82-7.168-0.344-10.345,1.424c-1.162,0.646-2.25,1.461-3.231,2.451l-9.621,9.695
				c-5.615,5.651-5.578,14.791,0.076,20.399C11.716,896.539,20.855,896.503,26.466,890.849z"/>
			<path id="arrow-16-icon_4_" fill="#28A885" d="M47.848,884.938v-3.728l8.764,8.75l-8.764,8.751v-3.729H28.673l10.031-10.046
				L47.848,884.938L47.848,884.938z"/>
		</g>
		<g>
			<path id="link-icon_3_" fill="#C2C2C2" d="M41.742,995.447c-0.979,0.988-2.07,1.81-3.229,2.456
				c-6.465,3.592-14.779,1.727-18.97-4.57l5.021-5.059c1.457,3.288,5.049,5.148,8.617,4.34c1.344-0.308,2.618-0.983,3.657-2.031
				l9.621-9.695c2.92-2.94,2.904-7.713-0.041-10.635c-2.94-2.92-7.713-2.902-10.635,0.041l-2.967,2.988
				c-2.711-1.063-5.617-1.48-8.482-1.256l6.547-6.598c5.611-5.654,14.748-5.688,20.402-0.075c5.658,5.61,5.693,14.744,0.08,20.401
				L41.742,995.447z M26.466,1010.849l6.548-6.598c-2.867,0.225-5.775-0.195-8.486-1.259l-2.967,2.989
				c-2.922,2.942-7.689,2.963-10.638,0.04c-2.938-2.92-2.961-7.69-0.036-10.637l9.62-9.693c2.931-2.954,7.707-2.946,10.636-0.04
				c0.683,0.677,1.271,1.52,1.64,2.351l5.021-5.058c-0.533-0.802-1.085-1.49-1.798-2.195c-1.83-1.818-4.153-3.167-6.823-3.797
				c-3.466-0.82-7.168-0.344-10.345,1.424c-1.162,0.646-2.25,1.461-3.231,2.451l-9.621,9.695
				c-5.615,5.651-5.578,14.791,0.076,20.399C11.716,1016.539,20.855,1016.503,26.466,1010.849z"/>
			<path id="arrow-16-icon_3_" fill="#C2C2C2" d="M47.848,1004.938v-3.728l8.764,8.75l-8.764,8.751v-3.729H28.673l10.031-10.046
				L47.848,1004.938L47.848,1004.938z"/>
		</g>
		<g>
			<path fill="#28A885" d="M22.652,768.877l-4.268-4.181l16.009-15.962c-2.162-1.496-3.979-3.314-4.847-4.888L4.364,769.043
				l4.876,4.882l4.252-4.249l4.271,4.269L22.652,768.877z"/>
			<path fill="#28A885" d="M48.197,730.098c-6.043-6.043-15.16-6.727-20.362-1.522c-5.201,5.202-4.521,14.317,1.523,20.362
				c6.044,6.044,15.159,6.726,20.36,1.521C54.921,745.257,54.242,736.141,48.197,730.098z M34.031,744.264
				c-3.045-3.046-3.389-7.639-0.767-10.26s7.214-2.278,10.259,0.768s3.389,7.639,0.768,10.26
				C41.669,747.65,37.076,747.308,34.031,744.264z"/>
		</g>
		<path fill="#2BA886" d="M33.5,0.03v12.673c7.996,1.806,13.869,8.895,13.869,17.388c0,8.493-5.873,15.583-13.869,17.388v12.063
			c14.994-1.936,26.074-14.498,26.074-29.757C59.574,14.528,48.494,1.966,33.5,0.03z"/>
		<path fill="#2BA886" d="M19.892,15.445c1.927-1.373,4.002-2.355,6.607-2.843V0c-5.95,0.735-11.44,3.233-15.811,6.938
			L19.892,15.445z"/>
		<path fill="#2BA886" d="M13.553,36.771l-12.02,2.171C5.053,49.918,14.716,58.131,26.5,59.569V47.541
			C20.686,46.304,15.766,42.203,13.553,36.771z"/>
		<path fill="#2BA886" d="M5.83,11.978c-3.696,4.979-5.898,11.126-5.898,17.808c0,0.78,0.039,1.551,0.104,2.313l12.11-2.188
			c0.035-3.489,1.088-6.723,2.854-9.456L5.83,11.978z"/>
		<g>
			<ellipse fill="#28A885" cx="29.676" cy="136.379" rx="5.495" ry="4.731"/>
			<path fill="#28A885" d="M29.673,119.92c-13.545,0-24.534,10.99-24.534,24.539c0,13.761,11.934,22.838,24.534,35.461
				c12.611-12.623,24.543-21.699,24.543-35.461C54.216,130.91,43.234,119.92,29.673,119.92z M32.076,145.532l-0.029,13.558
				l4.211-0.04l0.082,4.963l-4.254-0.002l-0.006,4.236l-4.861-0.007l0.012-22.72c-4.846-0.959-8.461-4.689-8.458-9.149
				c0.004-5.185,4.891-9.385,10.914-9.379c6.022,0.004,10.901,4.211,10.897,9.396C40.582,140.859,36.941,144.592,32.076,145.532z"/>
		</g>
		<g>
			<path fill="#28A885" d="M54.384,1109.918c-0.002-0.064,0-0.127-0.006-0.191c-0.021-1.112-0.51-2.206-1.459-2.94l-13.36-10.354
				c-1.664-1.288-4.058-0.984-5.347,0.678l-0.34,0.438c-1.289,1.665-0.985,4.059,0.68,5.348l9.064,7.024l-9.064,7.024
				c-1.665,1.289-1.969,3.683-0.68,5.348l0.34,0.438c1.289,1.662,3.683,1.966,5.347,0.678l13.36-10.354
				c0.949-0.735,1.438-1.828,1.459-2.94C54.384,1110.045,54.382,1109.982,54.384,1109.918z"/>
			<path fill="#28A885" d="M4.296,1109.918c0.002-0.064,0.001-0.127,0.007-0.191c0.021-1.112,0.511-2.206,1.459-2.94l13.36-10.354
				c1.664-1.288,4.058-0.984,5.346,0.678l0.341,0.438c1.289,1.665,0.985,4.059-0.68,5.348l-9.063,7.024l9.063,7.024
				c1.665,1.289,1.969,3.683,0.68,5.348l-0.341,0.438c-1.288,1.662-3.682,1.966-5.346,0.678l-13.36-10.354
				c-0.948-0.735-1.438-1.828-1.459-2.94C4.297,1110.045,4.298,1109.982,4.296,1109.918z"/>
		</g>
	</g>
	<path fill="#28A885" d="M2.201,1234.854c6.108-26.601,36.529-32.792,36.529-32.792v-8.189l18.143,18.112l-18.143,18.113v-8.189
		C38.73,1221.908,15.206,1220.93,2.201,1234.854z"/>
	<path fill="#C2C2C2" d="M2.201,1354.854c6.108-26.601,36.529-32.792,36.529-32.792v-8.189l18.143,18.112l-18.143,18.113v-8.189
		C38.73,1341.908,15.206,1340.93,2.201,1354.854z"/>
</g>
</svg>
