<?xml version="1.0" encoding="utf-8"?>
<!-- Generator: Adobe Illustrator 16.0.0, SVG Export Plug-In . SVG Version: 6.00 Build 0)  -->
<!DOCTYPE svg PUBLIC "-//W3C//DTD SVG 1.1//EN" "http://www.w3.org/Graphics/SVG/1.1/DTD/svg11.dtd">
<svg version="1.1" id="Layer_1" xmlns="http://www.w3.org/2000/svg" xmlns:xlink="http://www.w3.org/1999/xlink" x="0px" y="0px"
	 width="60.073px" height="1018.711px" viewBox="0 0 60.073 1018.711" enable-background="new 0 0 60.073 1018.711"
	 xml:space="preserve">
<g>
	<g>
		<rect x="36.076" y="20.639" fill="#2AA886" width="6.205" height="18.295"/>
		<rect x="27.312" y="26.078" fill="#2AA886" width="6.204" height="12.856"/>
		<rect x="18.547" y="31.517" fill="#2AA886" width="6.205" height="7.417"/>
	</g>
	<path fill="#2AA886" d="M0,488.746v51h60v-51H0z M20,498.746h20v7H20V498.746z M40,529.746H20v-7h20V529.746z M50,517.746H10v-7h40
		V517.746z"/>
	<path fill="#2AA886" d="M0,368.746v51h60v-51H0z M10,378.746h27v7H10V378.746z M37,409.746H10v-7h27V409.746z M47,397.746H10v-7h37
		V397.746z"/>
	<path fill="#2AA886" d="M0,247.746v51h60v-51H0z M10,263.746h26v7H10V263.746z M46,282.746H10v-7h36V282.746z"/>
	<polygon fill="#2AA886" points="28.18,249.746 39.176,239.746 50.173,249.746 	"/>
	<path fill="#2AA886" d="M0,608.746v51h60v-51H0z M50,649.746H23v-7h27V649.746z M50,637.746H13v-7h37V637.746z M50,625.746H23v-7
		h27V625.746z"/>
	<g>
		<path id="link-icon_1_" fill="#2AA886" d="M42.242,875.447c-0.98,0.989-2.07,1.81-3.229,2.456
			c-6.465,3.592-14.78,1.727-18.968-4.57l5.021-5.059c1.457,3.289,5.05,5.149,8.618,4.34c1.344-0.307,2.619-0.983,3.658-2.031
			l9.621-9.695c2.92-2.941,2.904-7.713-0.041-10.635c-2.941-2.92-7.713-2.902-10.635,0.041l-2.967,2.988
			c-2.71-1.063-5.618-1.48-8.483-1.256l6.547-6.597c5.611-5.655,14.748-5.688,20.402-0.075c5.658,5.61,5.693,14.744,0.08,20.401
			L42.242,875.447z M26.966,890.849l6.547-6.598c-2.868,0.225-5.776-0.195-8.487-1.259l-2.966,2.989
			c-2.922,2.943-7.689,2.963-10.637,0.04c-2.94-2.919-2.962-7.69-0.038-10.636l9.621-9.694c2.931-2.954,7.708-2.946,10.635-0.04
			c0.682,0.677,1.271,1.52,1.639,2.351l5.021-5.058c-0.533-0.802-1.084-1.49-1.797-2.195c-1.83-1.818-4.154-3.167-6.824-3.797
			c-3.465-0.82-7.169-0.344-10.345,1.424c-1.161,0.646-2.249,1.461-3.232,2.451l-9.621,9.695c-5.614,5.652-5.578,14.791,0.076,20.4
			C12.217,896.539,21.355,896.503,26.966,890.849z"/>
		<path id="arrow-16-icon_1_" fill="#28A885" d="M48.348,884.938v-3.728l8.764,8.75l-8.764,8.751v-3.729H29.174l10.031-10.045
			H48.348z"/>
	</g>
	<g>
		<path id="link-icon_2_" fill="#C2C2C2" d="M42.242,995.447c-0.98,0.989-2.07,1.81-3.229,2.456
			c-6.465,3.592-14.78,1.727-18.968-4.57l5.021-5.059c1.457,3.289,5.05,5.149,8.618,4.34c1.344-0.307,2.619-0.983,3.658-2.031
			l9.621-9.695c2.92-2.941,2.904-7.713-0.041-10.635c-2.941-2.92-7.713-2.902-10.635,0.041l-2.967,2.988
			c-2.71-1.063-5.618-1.48-8.483-1.256l6.547-6.597c5.611-5.655,14.748-5.688,20.402-0.075c5.658,5.61,5.693,14.744,0.08,20.401
			L42.242,995.447z M26.966,1010.849l6.547-6.598c-2.868,0.225-5.776-0.195-8.487-1.259l-2.966,2.989
			c-2.922,2.943-7.689,2.963-10.637,0.04c-2.94-2.919-2.962-7.69-0.038-10.636l9.621-9.694c2.931-2.954,7.708-2.946,10.635-0.04
			c0.682,0.677,1.271,1.52,1.639,2.351l5.021-5.058c-0.533-0.802-1.084-1.49-1.797-2.195c-1.83-1.818-4.154-3.167-6.824-3.797
			c-3.465-0.82-7.169-0.344-10.345,1.424c-1.161,0.646-2.249,1.461-3.232,2.451l-9.621,9.695c-5.614,5.652-5.578,14.791,0.076,20.4
			C12.217,1016.539,21.355,1016.503,26.966,1010.849z"/>
		<path id="arrow-16-icon_2_" fill="#C2C2C2" d="M48.348,1004.938v-3.728l8.764,8.75l-8.764,8.751v-3.729H29.174l10.031-10.045
			H48.348z"/>
	</g>
	<g>
		<path fill="#28A885" d="M23.153,768.877l-4.267-4.181l16.008-15.962c-2.162-1.496-3.979-3.314-4.846-4.887L4.864,769.043
			l4.876,4.882l4.251-4.249l4.27,4.268L23.153,768.877z"/>
		<path fill="#28A885" d="M48.697,730.098c-6.043-6.043-15.16-6.727-20.362-1.523c-5.201,5.202-4.52,14.318,1.523,20.363
			c6.044,6.043,15.159,6.725,20.361,1.521C55.422,745.257,54.741,736.141,48.697,730.098z M34.531,744.264
			c-3.045-3.046-3.389-7.639-0.767-10.26s7.214-2.278,10.259,0.767c3.045,3.046,3.389,7.639,0.767,10.26
			C42.17,747.65,37.576,747.308,34.531,744.264z"/>
	</g>
	<path fill="#2AA886" d="M34,0.03v12.673c7.996,1.806,13.868,8.895,13.868,17.388S41.996,45.674,34,47.479v12.063
		c14.994-1.936,26.073-14.498,26.073-29.757C60.073,14.528,48.994,1.966,34,0.03z"/>
	<path fill="#2AA886" d="M20.392,15.445c1.927-1.373,4.002-2.355,6.608-2.843V0c-5.95,0.735-11.442,3.233-15.811,6.938
		L20.392,15.445z"/>
	<path fill="#2AA886" d="M14.053,36.771L2.034,38.942C5.553,49.918,15.217,58.131,27,59.569V47.541
		C21.185,46.304,16.266,42.203,14.053,36.771z"/>
	<path fill="#2AA886" d="M6.33,11.978c-3.696,4.979-5.899,11.126-5.899,17.808c0,0.78,0.039,1.551,0.105,2.313l12.11-2.188
		c0.035-3.489,1.088-6.723,2.854-9.456L6.33,11.978z"/>
	<g>
		<ellipse fill="#28A885" cx="30.177" cy="136.379" rx="5.494" ry="4.731"/>
		<path fill="#28A885" d="M30.173,119.92c-13.545,0-24.534,10.99-24.534,24.539c0,13.761,11.933,22.838,24.534,35.461
			c12.612-12.623,24.543-21.699,24.543-35.461C54.717,130.91,43.734,119.92,30.173,119.92z M32.576,145.532l-0.029,13.558l4.21-0.04
			l0.083,4.963l-4.255-0.002l-0.005,4.236l-4.862-0.007l0.011-22.72c-4.845-0.959-8.461-4.689-8.458-9.149
			c0.003-5.185,4.89-9.385,10.913-9.379c6.024,0.004,10.903,4.211,10.899,9.396C41.081,140.859,37.441,144.592,32.576,145.532z"/>
	</g>
</g>
</svg>
