<?xml version="1.0" encoding="utf-8"?>
<!-- Generator: Adobe Illustrator 16.0.0, SVG Export Plug-In . SVG Version: 6.00 Build 0)  -->
<!DOCTYPE svg PUBLIC "-//W3C//DTD SVG 1.1//EN" "http://www.w3.org/Graphics/SVG/1.1/DTD/svg11.dtd">
<svg version="1.1" id="Layer_1" xmlns="http://www.w3.org/2000/svg" xmlns:xlink="http://www.w3.org/1999/xlink" x="0px" y="0px"
	 width="40px" height="397.645px" viewBox="0 0 40 397.645" enable-background="new 0 0 40 397.645" xml:space="preserve">
<g>
	<g>
		<g>
			<path fill="#969595" d="M22.509,0h17.487v16.896c0,0,0.673,16.325-17.354,20.825v-7.292c0,0,9.014-2.159,10.305-12.995H22.509V0z
				"/>
			<path fill="#969595" d="M0,0h17.488v16.896c0,0,0.672,16.325-17.354,20.825v-7.292c0,0,9.013-2.159,10.305-12.995H0V0z"/>
		</g>
	</g>
	<g>
		<g>
			<path fill="#2BA0CA" d="M22.508,119.927h17.488v16.897c0,0,0.672,16.326-17.354,20.826v-7.293c0,0,9.014-2.16,10.305-12.996
				H22.508V119.927z"/>
			<path fill="#2BA0CA" d="M0,119.927h17.487v16.897c0,0,0.673,16.326-17.354,20.826v-7.293c0,0,9.013-2.16,10.305-12.996H0V119.927
				z"/>
		</g>
	</g>
	<g>
		<g>
			<path fill="#FFFFFF" d="M22.508,239.928h17.488v16.896c0,0,0.672,16.324-17.354,20.824v-7.292c0,0,9.014-2.159,10.305-12.995
				H22.508V239.928z"/>
			<path fill="#FFFFFF" d="M0,239.928h17.487v16.896c0,0,0.673,16.324-17.354,20.824v-7.292c0,0,9.013-2.159,10.305-12.995H0
				V239.928z"/>
		</g>
	</g>
	<g>
		<path fill="#28A885" d="M22.508,359.926h17.488v16.896c0,0,0.672,16.324-17.354,20.824v-7.292c0,0,9.014-2.159,10.305-12.995
			H22.508V359.926z"/>
		<path fill="#28A885" d="M0,359.926h17.487v16.896c0,0,0.673,16.324-17.354,20.824v-7.292c0,0,9.013-2.159,10.305-12.995H0V359.926
			z"/>
	</g>
</g>
</svg>
